<?xml version="1.0" encoding="utf-8"?>
<!-- Generator: Adobe Illustrator 19.1.1, SVG Export Plug-In . SVG Version: 6.00 Build 0)  -->
<svg version="1.1"  xmlns="http://www.w3.org/2000/svg" xmlns:xlink="http://www.w3.org/1999/xlink" x="0px" y="0px"
	 viewBox="0 0 48 48" enable-background="new 0 0 48 48" xml:space="preserve">
<polygon fill="#CFD8DC" points="2,31 31,44 46,34.4 43,16.9 14.1,4 "/>
<polygon fill="#FF3D00" points="36.7,14.1 43,16.9 46,34.4 31,44 24.6,41.2 39.7,31.6 "/>
<path fill="#455A64" d="M18.7,25.7c0.3,0.4,0.8,0.8,1.3,1.1c0.8,0.4,1.5,0.1,1.7-0.5c0.3-0.6,0.1-1.2-0.5-2.1
	c-0.9-1.4-0.9-2.6-0.6-3.4c0.7-1.4,2.2-2.3,4.1-1.4c0.6,0.3,1,0.7,1.3,1l-0.9,1.4c-0.2-0.3-0.5-0.6-1-0.8c-0.8-0.4-1.3,0-1.6,0.4
	c-0.2,0.5-0.1,0.9,0.6,2c0.9,1.3,0.9,2.4,0.4,3.4c-0.7,1.6-2.5,2.2-4.3,1.3c-0.8-0.4-1.4-0.8-1.6-1.1L18.7,25.7z M30.4,26.5l-2.2-1
	l1-2.2l2.4,1l0.7-1.7L28,20.8l-4.2,9.6l4.4,1.9l0.7-1.7l-2.5-1.1l1.1-2.5l2.2,1L30.4,26.5z M18.4,21l-2.2-1l1-2.2l2.4,1l0.7-1.7
	L16,15.3l-4.2,9.6l4.4,1.9l0.7-1.7l-2.5-1.1l1.1-2.5l2.2,1L18.4,21z"/>
</svg>
