<?xml version="1.0" encoding="utf-8"?>
<!-- Generator: Adobe Illustrator 19.1.1, SVG Export Plug-In . SVG Version: 6.00 Build 0)  -->
<svg version="1.1"  xmlns="http://www.w3.org/2000/svg" xmlns:xlink="http://www.w3.org/1999/xlink" x="0px" y="0px"
	 viewBox="0 0 48 48" enable-background="new 0 0 48 48" xml:space="preserve">
<polygon fill="#CFD8DC" points="2,17 31,4 46,13.6 43,31.1 14.1,44 "/>
<polygon fill="#FF3D00" points="36.7,33.9 43,31.1 46,13.6 31,4 24.6,6.8 39.7,16.4 "/>
<path fill="#455A64" d="M21.6,30.1l-4.4-9.4l1.6-0.8l3.1,3c0.6,0.5,1.6,1.5,2.3,2.2l0,0c-0.5-1-1.4-2.6-2.3-4.2l-0.9-2.1l1.6-0.8
	l4.4,9.4l-1.6,0.8l-3.1-2.9c-0.7-0.7-1.7-1.7-2.3-2.3l0,0c0.5,0.9,1.2,2.3,2.2,4.2l1,2.1L21.6,30.1z M30,19.3l-2.2,1l-1-2.2l2.3-1.1
	l-0.8-1.7l-4.1,2l4.6,9.4l4.3-2.1l-0.8-1.7l-2.5,1.2l-1.2-2.5l2.1-1L30,19.3z M17.4,25.3l-2.2,1l-1-2.2l2.3-1.1l-0.8-1.7l-4.2,1.9
	l4.3,9.5l4.4-2l-0.8-1.7L17,30.3l-1.1-2.5l2.2-1L17.4,25.3z"/>
</svg>
