<?xml version="1.0" encoding="utf-8"?>
<!-- Generator: Adobe Illustrator 19.1.1, SVG Export Plug-In . SVG Version: 6.00 Build 0)  -->
<svg version="1.1"  xmlns="http://www.w3.org/2000/svg" xmlns:xlink="http://www.w3.org/1999/xlink" x="0px" y="0px"
	 viewBox="0 0 48 48" enable-background="new 0 0 48 48" xml:space="preserve">
<polygon fill="#CFD8DC" points="44,34 31,5 13.4,2 4,17 17,46 "/>
<polygon fill="#FF3D00" points="6.8,23.3 4,17 13.4,2 31,5 33.9,11.3 16.3,8.3 "/>
<path fill="#455A64" d="M20.7,32.3l8.9-5.6l0.8,2l-3.6,2.1c-1,0.5-2.1,1.1-3.2,1.7l0,0c1.2-0.3,2.3-0.6,3.5-0.9l4.1-1l0.6,1.5
	l-3.5,2.2c-0.9,0.6-2,1.2-3.2,1.9l0,0c1.3-0.4,2.4-0.7,3.5-1.1l3.9-1.2l0.8,1.8l-10.2,2.3l-0.8-1.8l2.8-1.9c0.8-0.5,1.9-1.2,2.9-1.7
	l0,0c-1.2,0.3-2.3,0.6-3.4,0.8l-3.2,0.7L20.7,32.3z M17.8,25.8l2.2-0.9c1.9-0.9,3.4-1.5,4.3-2l0,0c-0.6,0.6-1.7,1.5-2.4,2.2l-3,2.9
	l0.7,1.7l9.5-4l-0.7-1.7l-2.1,0.8c-1.7,0.8-3.3,1.7-4.3,2.1l0,0c0.7-0.7,1.8-1.6,2.3-2.3l3.2-3l-0.7-1.7l-9.5,4L17.8,25.8z M15,18.8
	l2.2-0.9c1.9-0.9,3.4-1.5,4.3-2l0,0c-0.6,0.6-1.7,1.5-2.4,2.2L16,21l0.7,1.7l9.5-4l-0.7-1.7l-2.1,0.8c-1.7,0.8-3.3,1.7-4.3,2.1l0,0
	c0.7-0.7,1.8-1.6,2.3-2.3l3.2-3l-0.7-1.7l-9.5,4L15,18.8z"/>
</svg>
