<?xml version="1.0" encoding="utf-8"?>
<!-- Generator: Adobe Illustrator 15.0.0, SVG Export Plug-In . SVG Version: 6.00 Build 0)  -->
<!DOCTYPE svg PUBLIC "-//W3C//DTD SVG 1.1//EN" "http://www.w3.org/Graphics/SVG/1.1/DTD/svg11.dtd">
<svg version="1.1"  xmlns="http://www.w3.org/2000/svg" xmlns:xlink="http://www.w3.org/1999/xlink" x="0px" y="0px"
	 width="48px" height="48px" viewBox="0 0 48 48" enable-background="new 0 0 48 48" xml:space="preserve">
<polygon fill="#CFD8DC" points="3,24 24.001,3 41.501,6.5 45,24 24.001,45 "/>
<polygon fill="#FF3D00" points="19.101,7.9 24.001,3 41.501,6.5 45,24 40.101,28.9 36.6,11.4 "/>
<g>
	<path fill="#455A64" d="M22.376,34.398l-9.034-9.032l1.587-1.588L19.84,26c0.952,0.476,2.538,1.11,3.646,1.744l0,0
		c-0.95-0.953-2.694-2.378-4.438-3.966l-2.06-2.058l1.585-1.584l9.032,9.03l-1.582,1.589l-4.756-2.063
		c-1.108-0.473-2.693-1.27-3.644-1.742l0,0c0.951,0.791,2.376,2.217,4.278,3.959l2.061,2.063L22.376,34.398z"/>
	<path fill="#455A64" d="M29.602,19.246l-2.061,2.063l2.379,2.378l2.377-2.378l1.585,1.584l-4.12,4.119l-9.033-9.033l3.803-3.959
		l1.586,1.582l-2.219,2.221l2.061,2.059l2.061-2.057L29.602,19.246z"/>
</g>
</svg>
