<?xml version="1.0" encoding="utf-8"?>
<!-- Generator: Adobe Illustrator 19.1.1, SVG Export Plug-In . SVG Version: 6.00 Build 0)  -->
<svg version="1.1"  xmlns="http://www.w3.org/2000/svg" xmlns:xlink="http://www.w3.org/1999/xlink" x="0px" y="0px"
	 viewBox="0 0 48 48" enable-background="new 0 0 48 48" xml:space="preserve">
<polygon fill="#CFD8DC" points="4,34 17,5 34.6,2 44,17 31,46 "/>
<polygon fill="#FF3D00" points="41.2,23.3 44,17 34.6,2 17,5 14.1,11.3 31.7,8.3 "/>
<path fill="#455A64" d="M28.3,29.3L18.9,25l0.8-1.6l4.3,0.3c0.8,0,2.2,0.1,3.2,0.2l0,0c-1-0.5-2.7-1.1-4.5-1.8l-2-1l0.8-1.6l9.4,4.4
	l-0.8,1.6L26,25.1c-1-0.1-2.4-0.2-3.3-0.3l0,0c0.9,0.3,2.4,1,4.4,1.8l2.1,1L28.3,29.3z M25.8,34.6l-2.1-1c-1.9-0.8-3.4-1.5-4.4-1.8
	l0,0c0.9,0.1,2.3,0.3,3.3,0.3l4.2,0.2l0.8-1.6l-9.4-4.4L17.3,28l2,1c1.8,0.7,3.5,1.3,4.5,1.8l0,0c-1-0.1-2.4-0.2-3.2-0.2l-4.3-0.3
	l-0.8,1.6l9.4,4.4L25.8,34.6z M27.8,15.6l-1,2.2l-2.2-1l1.1-2.3l-1.7-0.8l-1.9,4.2l9.5,4.3l2-4.4L32,17.1l-1.1,2.5l-2.5-1.1l1-2.2
	L27.8,15.6z"/>
</svg>
