<?xml version="1.0" encoding="utf-8"?>
<!-- Generator: Adobe Illustrator 15.0.0, SVG Export Plug-In . SVG Version: 6.00 Build 0)  -->
<!DOCTYPE svg PUBLIC "-//W3C//DTD SVG 1.1//EN" "http://www.w3.org/Graphics/SVG/1.1/DTD/svg11.dtd">
<svg version="1.1"  xmlns="http://www.w3.org/2000/svg" xmlns:xlink="http://www.w3.org/1999/xlink" x="0px" y="0px"
	 width="48px" height="48px" viewBox="0 0 48 48" enable-background="new 0 0 48 48" xml:space="preserve">
<polygon fill="#CFD8DC" points="9,44 9,14 24,4 39,14 39,44 "/>
<polygon fill="#FF3D00" points="9,21 9,14 24,4 39,14 39,21 24,11 "/>
<path fill="#455A64" d="M19,37V23h3.382l2.043,5.534c0.509,1.032,1.066,2.933,1.575,4.142l0,0c0-1.551,0-3.97,0-6.392V23h3v14
	h-3.213l-2.212-5.357c-0.513-1.209-1.235-2.937-1.575-4.149l0,0c0,1.383,0,3.741,0,6.507v3H19z"/>
</svg>
