<?xml version="1.0" encoding="utf-8"?>
<!-- Generator: Adobe Illustrator 15.0.0, SVG Export Plug-In . SVG Version: 6.00 Build 0)  -->
<!DOCTYPE svg PUBLIC "-//W3C//DTD SVG 1.1//EN" "http://www.w3.org/Graphics/SVG/1.1/DTD/svg11.dtd">
<svg version="1.1"  xmlns="http://www.w3.org/2000/svg" xmlns:xlink="http://www.w3.org/1999/xlink" x="0px" y="0px"
	 width="48px" height="48px" viewBox="0 0 48 48" enable-background="new 0 0 48 48" xml:space="preserve">
<polygon fill="#CFD8DC" points="45,24 23.999,3 6.499,6.5 3,24 23.999,45 "/>
<polygon fill="#FF3D00" points="28.899,7.9 23.999,3 6.499,6.5 3,24 7.899,28.9 11.4,11.4 "/>
<g>
	<path fill="#455A64" d="M12.622,21.715l9.113-9.113l1.597,1.602l-2.236,4.953c-0.321,0.959-1.12,2.559-1.6,3.677l0,0
		c0.959-0.96,2.399-2.718,3.997-4.476l2.078-1.918l1.599,1.6l-9.111,9.109l-1.599-1.598l2.077-4.795
		c0.48-1.119,1.281-2.72,1.759-3.677l0,0c-0.8,0.958-2.238,2.397-3.997,4.315l-2.078,2.078L12.622,21.715z"/>
	<path fill="#455A64" d="M20.82,29.91l7.514-10.709l1.916,1.918l-3.195,4.157c-0.96,1.118-1.918,2.239-2.877,3.517l0,0
		c1.279-0.959,2.398-1.758,3.676-2.719l4.318-3.037l1.437,1.44l-3.037,4.155c-0.798,1.119-1.76,2.398-2.876,3.676l0,0
		c1.276-1.118,2.396-1.917,3.516-2.876l3.996-3.198l1.759,1.76l-10.551,7.514l-1.758-1.762l2.397-3.515
		c0.641-0.96,1.598-2.237,2.558-3.356l0,0c-1.278,0.959-2.397,1.758-3.517,2.557l-3.517,2.4L20.82,29.91z"/>
</g>
</svg>
