<?xml version="1.0" encoding="utf-8"?>
<!-- Generator: Adobe Illustrator 15.0.0, SVG Export Plug-In . SVG Version: 6.00 Build 0)  -->
<!DOCTYPE svg PUBLIC "-//W3C//DTD SVG 1.1//EN" "http://www.w3.org/Graphics/SVG/1.1/DTD/svg11.dtd">
<svg version="1.1"  xmlns="http://www.w3.org/2000/svg" xmlns:xlink="http://www.w3.org/1999/xlink" x="0px" y="0px"
	 width="48px" height="48px" viewBox="0 0 48 48" enable-background="new 0 0 48 48" xml:space="preserve">
<polygon fill="#CFD8DC" points="39,4 39,34 24,44 9,34 9,4 "/>
<polygon fill="#FF3D00" points="9,27 9,34 24,44 39,34 39,27 24,37 "/>
<path fill="#455A64" d="M21.334,22.271c0.5,0.34,1.499,0.514,2.166,0.514c1.167,0,1.833-0.685,1.833-1.541
	c0-1.021-0.666-1.532-1.664-2.216c-1.834-1.194-2.499-2.733-2.499-3.928c0-2.223,1.498-4.101,4.162-4.101
	c0.836,0,1.667,0.174,2.165,0.512l-0.498,2.396c-0.333-0.174-1-0.514-1.667-0.514c-1.165,0-1.664,0.679-1.664,1.361
	c0,0.854,0.333,1.201,1.833,2.223C27.334,18,28,19.54,28,20.907C28,23.468,26.168,25,23.5,25c-1,0-2.166-0.339-2.5-0.512
	L21.334,22.271z"/>
</svg>
