<?xml version="1.0" encoding="utf-8"?>
<!-- Generator: Adobe Illustrator 15.0.0, SVG Export Plug-In . SVG Version: 6.00 Build 0)  -->
<!DOCTYPE svg PUBLIC "-//W3C//DTD SVG 1.1//EN" "http://www.w3.org/Graphics/SVG/1.1/DTD/svg11.dtd">
<svg version="1.1"  xmlns="http://www.w3.org/2000/svg" xmlns:xlink="http://www.w3.org/1999/xlink" x="0px" y="0px"
	 width="48px" height="48px" viewBox="0 0 48 48" enable-background="new 0 0 48 48" xml:space="preserve">
<polygon fill="#CFD8DC" points="45,24.002 24,45 6.5,41.502 3,24.002 24,3 "/>
<polygon fill="#FF3D00" points="7.9,19.101 3,24.002 6.5,41.502 24,45 28.9,40.101 11.4,36.6 "/>
<g>
	<path fill="#455A64" d="M20.254,32.896c0.622-0.154,1.244-0.622,1.865-1.083c0.776-0.78,0.775-1.711,0.155-2.176
		c-0.619-0.621-1.398-0.621-2.641-0.313c-2.016,0.469-3.416,0-4.19-0.772c-1.398-1.399-1.708-3.573,0.152-5.439
		c0.622-0.62,1.244-0.928,1.709-1.083l1.243,1.707c-0.465,0.156-0.931,0.308-1.397,0.778c-0.775,0.772-0.622,1.55-0.154,2.017
		c0.465,0.465,1.086,0.463,2.638,0.154c1.864-0.463,3.261,0.001,4.193,0.931c1.554,1.556,1.554,3.886-0.311,5.593
		c-0.776,0.771-1.554,1.239-2.019,1.395L20.254,32.896z"/>
	<path fill="#455A64" d="M28.965,28.128l-10.403-7.456l1.864-1.861l4.038,3.105c1.085,0.934,2.173,1.863,3.416,2.794l0,0
		c-0.934-1.243-1.707-2.329-2.641-3.569l-2.951-4.192l1.399-1.399l4.037,2.949c1.087,0.778,2.329,1.709,3.571,2.795l0,0
		c-1.088-1.243-1.863-2.328-2.795-3.414l-3.105-3.883l1.707-1.707L34.4,22.693L32.691,24.4l-3.418-2.329
		c-0.929-0.622-2.17-1.552-3.258-2.485l0,0c0.932,1.242,1.709,2.329,2.484,3.416l2.252,3.305L28.965,28.128z"/>
</g>
</svg>
