<?xml version="1.0" encoding="utf-8"?>
<!-- Generator: Adobe Illustrator 15.0.0, SVG Export Plug-In . SVG Version: 6.00 Build 0)  -->
<!DOCTYPE svg PUBLIC "-//W3C//DTD SVG 1.1//EN" "http://www.w3.org/Graphics/SVG/1.1/DTD/svg11.dtd">
<svg version="1.1"  xmlns="http://www.w3.org/2000/svg" xmlns:xlink="http://www.w3.org/1999/xlink" x="0px" y="0px"
	 width="48px" height="48px" viewBox="0 0 48 48" enable-background="new 0 0 48 48" xml:space="preserve">
<polygon fill="#CFD8DC" points="24,3 45,24.002 41.5,41.502 24,45 3,24.002 "/>
<polygon fill="#FF3D00" points="40.1,19.101 45,24.002 41.5,41.502 24,45 19.1,40.101 36.6,36.6 "/>
<g>
	<g>
		<path fill="#455A64" d="M14.796,20.789c0.168,0.671,0.84,1.51,1.342,2.012c0.837,0.838,1.843,0.839,2.348,0.168
			c0.67-0.67,0.67-1.51,0.334-2.852c-0.503-2.176,0-3.687,0.838-4.526c1.508-1.505,3.856-1.844,5.866,0.169
			c0.671,0.671,1.006,1.342,1.175,1.844l-1.845,1.341c-0.166-0.501-0.336-1.003-0.838-1.509c-0.837-0.834-1.676-0.672-2.179-0.166
			c-0.502,0.502-0.502,1.175-0.167,2.848c0.501,2.014-0.001,3.521-1.006,4.527c-1.676,1.674-4.19,1.674-6.034-0.336
			c-0.838-0.837-1.341-1.678-1.509-2.179L14.796,20.789z"/>
		<path fill="#455A64" d="M28.039,29.503l-2.18-2.175l-2.514,2.515l2.514,2.515l-1.674,1.673l-4.359-4.356l9.555-9.557l4.191,4.189
			l-1.677,1.68l-2.349-2.347l-2.179,2.177l2.179,2.182L28.039,29.503z"/>
	</g>
</g>
</svg>
