<?xml version="1.0" encoding="utf-8"?>
<!-- Generator: Adobe Illustrator 19.1.1, SVG Export Plug-In . SVG Version: 6.00 Build 0)  -->
<svg version="1.1"  xmlns="http://www.w3.org/2000/svg" xmlns:xlink="http://www.w3.org/1999/xlink" x="0px" y="0px"
	 viewBox="0 0 48 48" enable-background="new 0 0 48 48" xml:space="preserve">
<polygon fill="#CFD8DC" points="31,2 44,31 34.4,46 16.9,43 4,14.1 "/>
<polygon fill="#FF3D00" points="14.1,36.7 16.9,43 34.4,46 44,31 41.2,24.6 31.6,39.7 "/>
<path fill="#455A64" d="M20.6,22.4c-0.1,0.5,0.1,1.1,0.3,1.7c0.4,0.8,1.1,1.1,1.6,0.7c0.6-0.3,0.9-0.9,1-1.9c0.2-1.6,1-2.5,1.8-2.9
	c1.4-0.6,3.2-0.2,4,1.7c0.3,0.6,0.3,1.2,0.3,1.6L28,23.8c0-0.4,0-0.8-0.2-1.3c-0.4-0.8-1-0.9-1.5-0.7c-0.5,0.2-0.7,0.7-0.9,1.9
	c-0.2,1.5-0.9,2.4-1.9,2.9c-1.6,0.7-3.3,0-4.1-1.8c-0.4-0.8-0.5-1.5-0.5-1.9L20.6,22.4z M16.6,17.2c0,0.4,0.1,1.1,0.5,1.9
	c0.7,1.9,2.5,2.6,4.1,1.8c1-0.4,1.7-1.3,1.9-2.9c0.2-1.2,0.4-1.7,0.9-1.9c0.5-0.2,1.1-0.1,1.5,0.7c0.2,0.5,0.2,0.9,0.2,1.3l1.6-0.4
	c0-0.4,0-0.9-0.3-1.6c-0.9-1.9-2.6-2.3-4-1.7c-0.8,0.4-1.6,1.3-1.8,2.9c-0.1,1-0.4,1.6-1,1.9c-0.5,0.3-1.2,0.1-1.6-0.7
	c-0.2-0.6-0.3-1.2-0.3-1.7L16.6,17.2z M28.9,30.7l-1-2.2l2.2-1l1.1,2.3l1.7-0.8l-1.9-4.2l-9.5,4.4l2,4.3l1.7-0.8l-1.2-2.5l2.5-1.2
	l1,2.2L28.9,30.7z"/>
</svg>
