<?xml version="1.0" encoding="utf-8"?>
<!-- Generator: Adobe Illustrator 15.0.0, SVG Export Plug-In . SVG Version: 6.00 Build 0)  -->
<!DOCTYPE svg PUBLIC "-//W3C//DTD SVG 1.1//EN" "http://www.w3.org/Graphics/SVG/1.1/DTD/svg11.dtd">
<svg version="1.1"  xmlns="http://www.w3.org/2000/svg" xmlns:xlink="http://www.w3.org/1999/xlink" x="0px" y="0px"
	 width="48px" height="48px" viewBox="0 0 48 48" enable-background="new 0 0 48 48" xml:space="preserve">
<polygon fill="#CFD8DC" points="44,39 14,39 4,24 14,9 44,9 "/>
<path fill="#455A64" d="M25.158,31l-2.333-14h2.87l0.719,5.533c0.179,1.551,0.359,3.109,0.537,4.835l0,0
	c0.182-1.726,0.541-3.284,0.9-4.835L28.928,17h2.334l0.897,5.533c0.177,1.551,0.536,3.109,0.718,5.01l0,0
	c0.178-1.9,0.359-3.284,0.537-5.01L34.133,17h2.692l-2.513,14h-2.873l-0.896-4.664c-0.357-1.211-0.541-2.769-0.717-4.494l0,0
	c-0.184,1.726-0.541,3.283-0.72,4.662L28.211,31H25.158z"/>
<polygon fill="#FF3D00" points="21,9 14,9 4,24 14,39 21,39 11,24 "/>
</svg>
