<?xml version="1.0" encoding="utf-8"?>
<!-- Generator: Adobe Illustrator 19.1.1, SVG Export Plug-In . SVG Version: 6.00 Build 0)  -->
<svg version="1.1"  xmlns="http://www.w3.org/2000/svg" xmlns:xlink="http://www.w3.org/1999/xlink" x="0px" y="0px"
	 viewBox="0 0 48 48" enable-background="new 0 0 48 48" xml:space="preserve">
<polygon fill="#CFD8DC" points="46,17 17,4 2,13.6 5,31.1 33.9,44 "/>
<polygon fill="#FF3D00" points="11.3,33.9 5,31.1 2,13.6 17,4 23.4,6.8 8.3,16.4 "/>
<path fill="#455A64" d="M28.7,31.8l2.9-10.1l2,0.9l-1.3,4c-0.4,1.1-0.8,2.2-1.2,3.4l0,0c0.7-1.1,1.3-2,2-3l2.4-3.5l1.5,0.7l-1.2,3.9
	c-0.3,1.1-0.7,2.3-1.2,3.5l0,0c0.7-1.2,1.3-2.1,1.9-3.1l2.1-3.5l1.8,0.8l-6,8.6l-1.8-0.8l0.8-3.3c0.2-0.9,0.6-2.1,1-3.2l0,0
	c-0.7,1.1-1.3,2-1.9,2.9l-1.9,2.7L28.7,31.8z M14.1,24.8l1.9-2.7c0.6-0.9,1.2-1.8,1.9-2.9l0,0c-0.4,1.1-0.8,2.3-1,3.2l-0.8,3.3
	l1.8,0.8l6-8.6l-1.8-0.8L20,20.7c-0.6,1-1.2,1.9-1.9,3.1l0,0c0.5-1.3,0.9-2.5,1.2-3.5l1.2-3.9L19,15.7l-2.4,3.5c-0.7,1.1-1.3,2-2,3
	l0,0c0.4-1.2,0.8-2.3,1.2-3.4l1.3-4l-2-0.9L12.2,24L14.1,24.8z M22.2,28.9l1-2.1c0.8-1.9,1.5-3.4,1.8-4.4l0,0
	c-0.1,0.9-0.3,2.3-0.3,3.3l-0.3,4.2l1.6,0.8l4.4-9.4l-1.6-0.8l-1,2c-0.7,1.8-1.3,3.5-1.8,4.5l0,0c0.1-1,0.2-2.4,0.2-3.2l0.3-4.3
	l-1.6-0.8L20.5,28L22.2,28.9z"/>
</svg>
