<?xml version="1.0" encoding="utf-8"?>
<!-- Generator: Adobe Illustrator 19.1.1, SVG Export Plug-In . SVG Version: 6.00 Build 0)  -->
<svg version="1.1"  xmlns="http://www.w3.org/2000/svg" xmlns:xlink="http://www.w3.org/1999/xlink" x="0px" y="0px"
	 viewBox="0 0 48 48" enable-background="new 0 0 48 48" xml:space="preserve">
<polygon fill="#CFD8DC" points="46,31 17,44 2,34.4 5,16.9 33.9,4 "/>
<polygon fill="#FF3D00" points="11.3,14.1 5,16.9 2,34.4 17,44 23.4,41.2 8.3,31.6 "/>
<path fill="#455A64" d="M24.8,27.8c0.5,0.1,1.1-0.1,1.7-0.3c0.8-0.4,1-1.1,0.7-1.6c-0.3-0.6-0.9-0.8-1.9-1c-1.6-0.2-2.6-0.9-2.9-1.7
	c-0.7-1.4-0.3-3.2,1.6-4c0.6-0.3,1.2-0.4,1.6-0.3l0.5,1.6c-0.4,0-0.8,0-1.3,0.2c-0.8,0.4-0.9,1-0.7,1.5c0.2,0.5,0.7,0.6,1.9,0.8
	c1.5,0.2,2.4,0.9,2.9,1.8c0.7,1.6,0.1,3.3-1.8,4.1c-0.8,0.4-1.5,0.5-1.9,0.5L24.8,27.8z M34.2,25.8l-0.8-3.2c-0.3-1.1-0.6-2.1-1-3.3
	l0,0c0.6,1,1.3,2.1,1.8,2.8l2,2.8L38,24l-2.7-10.1l-1.8,0.8l1.3,3.9c0.4,1.1,0.7,2.2,1.2,3.4l0,0c-0.7-1.2-1.4-2.3-2-3.2l-2.3-3.4
	l-1.5,0.7l1.1,4.1c0.4,1.2,0.7,2.3,1,3.5l0,0c-0.7-1.1-1.3-2.1-1.8-3.1l-2.2-3.5l-2,0.9l5.9,8.7L34.2,25.8z M19.2,32.7l-0.8-3.2
	c-0.3-1.1-0.6-2.1-1-3.3l0,0c0.6,1,1.3,2.1,1.8,2.8l2,2.8L23,31l-2.7-10.1l-1.8,0.8l1.3,3.9c0.4,1.1,0.7,2.2,1.2,3.4l0,0
	c-0.7-1.2-1.4-2.3-2-3.2l-2.3-3.4l-1.5,0.7l1.1,4.1c0.4,1.2,0.7,2.3,1,3.5l0,0c-0.7-1.1-1.3-2.1-1.8-3.1L13.3,24l-2,0.9l5.9,8.7
	L19.2,32.7z"/>
</svg>
